<?xml version="1.0" encoding="UTF-8" standalone="no"?>
<!-- Created with Inkscape (http://www.inkscape.org/) -->

<svg
   width="50mm"
   height="68mm"
   viewBox="0 0 50 68"
   version="1.1"
   id="svg1"
   inkscape:version="1.4.2 (ebf0e940, 2025-05-08)"
   sodipodi:docname="dame_noire.svg"
   xmlns:inkscape="http://www.inkscape.org/namespaces/inkscape"
   xmlns:sodipodi="http://sodipodi.sourceforge.net/DTD/sodipodi-0.dtd"
   xmlns="http://www.w3.org/2000/svg"
   xmlns:svg="http://www.w3.org/2000/svg">
  <sodipodi:namedview
     id="namedview1"
     pagecolor="#868686"
     bordercolor="#000000"
     borderopacity="0.25"
     inkscape:showpageshadow="2"
     inkscape:pageopacity="0.0"
     inkscape:pagecheckerboard="0"
     inkscape:deskcolor="#727272"
     inkscape:document-units="mm"
     inkscape:zoom="1.3108005"
     inkscape:cx="-35.855952"
     inkscape:cy="105.27918"
     inkscape:window-width="1280"
     inkscape:window-height="711"
     inkscape:window-x="0"
     inkscape:window-y="25"
     inkscape:window-maximized="1"
     inkscape:current-layer="layer1"
     showborder="false" />
  <defs
     id="defs1">
    <inkscape:path-effect
       effect="bspline"
       id="path-effect11-3"
       is_visible="true"
       lpeversion="1.3"
       weight="33.333333"
       steps="2"
       helper_size="0"
       apply_no_weight="true"
       apply_with_weight="true"
       only_selected="false"
       uniform="false" />
    <inkscape:path-effect
       effect="bspline"
       id="path-effect13"
       is_visible="true"
       lpeversion="1.3"
       weight="33.333333"
       steps="2"
       helper_size="0"
       apply_no_weight="true"
       apply_with_weight="true"
       only_selected="false"
       uniform="false" />
  </defs>
  <g
     inkscape:label="Calque 1"
     inkscape:groupmode="layer"
     id="layer1"
     style="fill:#fcfcfd;fill-opacity:1"
     transform="translate(0,0.8875)">
    <rect
       style="fill:#1f1f1f;fill-opacity:1;stroke:none;stroke-opacity:1;stroke-width:0.499999;stroke-dasharray:none"
       id="rect2"
       width="20.486212"
       height="7.4133897"
       x="14.756618"
       y="51.777958" />
    <path
       id="rect20"
       style="fill:#1f1f1f;fill-opacity:1;stroke:#000000;stroke-width:0.493336;stroke-dasharray:none"
       d="m 49.753332,59.1125 v 7.753332 H 0.246668 v -7.550489 -0.138032"
       sodipodi:nodetypes="ccccc" />
    <g
       id="path20"
       style="opacity:1;fill:#fcfcfd;fill-opacity:1"
       transform="matrix(0.98926017,0,0,1,0.16109743,0.100783)">
      <path
         style="baseline-shift:baseline;display:inline;overflow:visible;vector-effect:none;fill:#1f1f1f;fill-opacity:1;enable-background:accumulate;stop-color:#000000;stop-opacity:1"
         d="m 0.08699608,59.10051 c 7e-8,-3.058185 3.23508192,-5.994398 8.09442502,-7.190295 C 10.406179,51.362696 12.364,51.539826 14.885307,51.539826 l 0.0277,7.560684"
         id="path29"
         sodipodi:nodetypes="cscc" />
      <path
         style="baseline-shift:baseline;display:inline;overflow:visible;vector-effect:none;fill:#000000;fill-opacity:1;enable-background:accumulate;stop-color:#000000;stop-opacity:1"
         d="m 10.512533,51.250844 c -2.3575929,0.389133 -4.5483215,1.10313 -6.2524846,2.022799 -2.6992554,1.45668 -4.42289472,3.587781 -4.42289477,5.840759 l 0.49987552,0.0062 c 5e-8,-2.165856 1.61313235,-4.045029 4.27983695,-5.484143 1.6799495,-0.906602 3.6924929,-1.514453 6.0292809,-1.898581 m 4.180025,7.361729 H 15 m 0,-8.08789 h -0.08789"
         id="path30"
         sodipodi:nodetypes="csccsccccc" />
    </g>
    <g
       id="g4"
       style="opacity:1;fill:#fcfcfd;fill-opacity:1"
       transform="matrix(-0.98926017,0,0,1,49.838903,0.100783)">
      <path
         style="baseline-shift:baseline;display:inline;overflow:visible;vector-effect:none;fill:#1f1f1f;fill-opacity:1;enable-background:accumulate;stop-color:#000000;stop-opacity:1"
         d="m 0.08699608,59.10051 c 8e-8,-3.734317 4.36235852,-6.824337 10.77302392,-7.706559 1.175104,-0.161715 2.737281,0.03296 4.005703,0.03296 l 0.04728,7.673602"
         id="path3"
         sodipodi:nodetypes="cscc" />
      <path
         style="baseline-shift:baseline;display:inline;overflow:visible;vector-effect:none;fill:#000000;fill-opacity:1;enable-background:accumulate;stop-color:#000000;stop-opacity:1"
         d="m 10.65044,51.226039 c -2.357593,0.389133 -4.6862285,1.127935 -6.3903916,2.047604 -2.6992554,1.45668 -4.42289472,3.587781 -4.42289477,5.840759 l 0.49987552,0.0062 c 5e-8,-2.165856 1.61313235,-4.045029 4.27983695,-5.484143 1.6799495,-0.906602 3.597933,-1.50276 5.9347209,-1.886888 m 4.274585,7.350036 H 15 m 0,-8.08789 h -0.08789"
         id="path4"
         sodipodi:nodetypes="csccsccccc" />
    </g>
    <rect
       style="fill:#000000;fill-opacity:1;stroke:none;stroke-width:0.142124;stroke-dasharray:none;stroke-opacity:1"
       id="rect32"
       width="28.932312"
       height="0.5"
       x="10.542934"
       y="-51.854855"
       transform="scale(1,-1)" />
    <path
       style="fill:#1f1f1f;fill-opacity:1;stroke:#000000;stroke-width:0.521674;stroke-dasharray:none;stroke-opacity:1"
       d="M 13.365208,51.494591 H 37.325154 L 47.467708,19.415016 35.267246,28.12121 36.443193,2.9438399 25.565671,23.885764 13.806189,3.0222741 15.423118,27.885906 3.369648,20.277791 Z"
       id="path1" />
    <g
       id="g2"
       transform="matrix(1.3273966,0,0,0.99768766,-2.4749438,-0.89815308)"
       style="fill:#fcfcfd;fill-opacity:1">
      <g
         id="rect62"
         style="fill:#fcfcfd;fill-opacity:1;stroke:#000000;stroke-width:0.893263;stroke-dasharray:none;stroke-opacity:1"
         transform="matrix(0.57279482,0,0,0.54699318,23.210707,69.047601)">
        <g
           id="path2"
           style="opacity:1;fill:#fcfcfd;fill-opacity:1">
          <path
             style="baseline-shift:baseline;display:inline;overflow:visible;vector-effect:none;fill:#1f1f1f;fill-opacity:1;stroke:none;enable-background:accumulate;stop-color:#000000;stop-opacity:1"
             d="m -27.70825,-43.539993 48.087162,0.02138 0.01196,4.622256 -48.099121,0.06565"
             id="path9"
             sodipodi:nodetypes="cccc" />
          <path
             style="baseline-shift:baseline;display:inline;overflow:visible;vector-effect:none;fill:#000000;fill-opacity:1;stroke:none;enable-background:accumulate;stop-color:#000000;stop-opacity:1"
             d="m 20.297383,-44.001341 -48.006367,0.01501 v 0.892578 l 48.017885,-0.0088 m -0.02107,3.819211 -47.996827,0.0059 0.002,0.892578 48.010831,-0.0059"
             id="path10"
             sodipodi:nodetypes="cccccccc" />
        </g>
      </g>
      <path
         id="path62"
         style="fill:#1f1f1f;fill-opacity:1;stroke:#000000;stroke-width:0.5;stroke-dasharray:none;stroke-opacity:1"
         d="M 7.5057339,47.801853 C 7.0898585,47.801799 6.7056357,47.556032 6.4979392,47.157219 6.2902386,46.758409 6.2906533,46.26721 6.4990275,45.868831 6.7074051,45.470454 7.0920471,45.225492 7.5079219,45.226308"
         sodipodi:nodetypes="cssc" />
      <path
         id="path62-4"
         style="fill:#1f1f1f;fill-opacity:1;stroke:#000000;stroke-width:0.5;stroke-dasharray:none;stroke-opacity:1"
         d="m 34.81157,45.224592 c 0.415876,5.5e-5 0.800099,0.245822 1.007796,0.644635 0.2077,0.39881 0.207285,0.890008 -0.0011,1.288388 -0.208377,0.398377 -0.593019,0.643339 -1.008894,0.642523"
         sodipodi:nodetypes="cssc" />
    </g>
    <path
       style="fill:#1f1f1f;stroke:#000000;stroke-width:0.562999;stroke-dasharray:none;stroke-opacity:1;fill-opacity:1"
       id="path5"
       sodipodi:type="arc"
       sodipodi:cx="2.3769908"
       sodipodi:cy="18.658785"
       sodipodi:rx="1.434443"
       sodipodi:ry="1.3608961"
       sodipodi:start="3.1417107"
       sodipodi:end="3.1411324"
       sodipodi:arc-type="arc"
       d="M 0.94254781,18.658624 A 1.434443,1.3608961 0 0 1 2.3769527,17.297889 1.434443,1.3608961 0 0 1 3.8114338,18.658552 1.434443,1.3608961 0 0 1 2.3774436,20.019681 1.434443,1.3608961 0 0 1 0.94254795,18.659411"
       sodipodi:open="true" />
    <path
       style="fill:#1f1f1f;fill-opacity:1;stroke:#000000;stroke-width:0.562999;stroke-dasharray:none;stroke-opacity:1"
       id="path5-7"
       sodipodi:type="arc"
       sodipodi:cx="13.349341"
       sodipodi:cy="1.8008273"
       sodipodi:rx="1.434443"
       sodipodi:ry="1.3608961"
       sodipodi:start="3.1417107"
       sodipodi:end="3.1411324"
       sodipodi:arc-type="arc"
       d="M 11.914898,1.8006666 A 1.434443,1.3608961 0 0 1 13.349303,0.43993115 1.434443,1.3608961 0 0 1 14.783784,1.8005944 1.434443,1.3608961 0 0 1 13.349794,3.1617233 1.434443,1.3608961 0 0 1 11.914899,1.8014536"
       sodipodi:open="true" />
    <path
       style="fill:#1f1f1f;fill-opacity:1;stroke:#000000;stroke-width:0.562999;stroke-dasharray:none;stroke-opacity:1"
       id="path5-9"
       sodipodi:type="arc"
       sodipodi:cx="36.820087"
       sodipodi:cy="1.6382183"
       sodipodi:rx="1.434443"
       sodipodi:ry="1.3608961"
       sodipodi:start="3.1417107"
       sodipodi:end="3.1411324"
       sodipodi:arc-type="arc"
       d="M 35.385644,1.6380576 A 1.434443,1.3608961 0 0 1 36.820049,0.27732217 1.434443,1.3608961 0 0 1 38.25453,1.6379854 1.434443,1.3608961 0 0 1 36.82054,2.9991143 1.434443,1.3608961 0 0 1 35.385645,1.6388446"
       sodipodi:open="true" />
    <path
       style="fill:#1f1f1f;fill-opacity:1;stroke:#000000;stroke-width:0.562999;stroke-dasharray:none;stroke-opacity:1"
       id="path5-6"
       sodipodi:type="arc"
       sodipodi:cx="48.328079"
       sodipodi:cy="17.69236"
       sodipodi:rx="1.434443"
       sodipodi:ry="1.3608961"
       sodipodi:start="3.1417107"
       sodipodi:end="3.1411324"
       sodipodi:arc-type="arc"
       d="m 46.893636,17.692199 a 1.434443,1.3608961 0 0 1 1.434405,-1.360735 1.434443,1.3608961 0 0 1 1.434481,1.360663 1.434443,1.3608961 0 0 1 -1.43399,1.361129 1.434443,1.3608961 0 0 1 -1.434896,-1.36027"
       sodipodi:open="true" />
  </g>
</svg>
